<?xml version="1.0" encoding="UTF-8" standalone="no"?>
<svg xmlns:svg="http://www.w3.org/2000/svg"
    xmlns:xlink="http://www.w3.org/1999/xlink"
    height="24px" version="1.0"
    viewBox="0 0 128 128" width="24px"
    xmlns="http://www.w3.org/2000/svg"
    xml:space="preserve">
    <script type="text/ecmascript"
        xlink:href="//preloaders.net/jscripts/smil.user.js"/>
    <rect fill="#FFFFFF" height="100%" width="100%" x="0" y="0" />
    <g>
        <path d="M97.63 8.23a7.38 7.38 0 0 1 2.7 10.07L89.2 37.57a7.38 7.38 0 1 1-12.77-7.37l11.12-19.27a7.38 7.38 0 0 1 10.08-2.7z" fill="#999999" fill-opacity="1"/><path d="M97.63 8.23a7.38 7.38 0 0 1 2.7 10.07L89.2 37.57a7.38 7.38 0 1 1-12.77-7.37l11.12-19.27a7.38 7.38 0 0 1 10.08-2.7z" fill="#f5f5f5" fill-opacity="0.1" transform="rotate(30 64 64)"/><path d="M97.63 8.23a7.38 7.38 0 0 1 2.7 10.07L89.2 37.57a7.38 7.38 0 1 1-12.77-7.37l11.12-19.27a7.38 7.38 0 0 1 10.08-2.7z" fill="#f5f5f5" fill-opacity="0.1" transform="rotate(60 64 64)"/><path d="M97.63 8.23a7.38 7.38 0 0 1 2.7 10.07L89.2 37.57a7.38 7.38 0 1 1-12.77-7.37l11.12-19.27a7.38 7.38 0 0 1 10.08-2.7z" fill="#f5f5f5" fill-opacity="0.1" transform="rotate(90 64 64)"/><path d="M97.63 8.23a7.38 7.38 0 0 1 2.7 10.07L89.2 37.57a7.38 7.38 0 1 1-12.77-7.37l11.12-19.27a7.38 7.38 0 0 1 10.08-2.7z" fill="#ebebeb" fill-opacity="0.19" transform="rotate(120 64 64)"/><path d="M97.63 8.23a7.38 7.38 0 0 1 2.7 10.07L89.2 37.57a7.38 7.38 0 1 1-12.77-7.37l11.12-19.27a7.38 7.38 0 0 1 10.08-2.7z" fill="#e2e2e2" fill-opacity="0.28" transform="rotate(150 64 64)"/><path d="M97.63 8.23a7.38 7.38 0 0 1 2.7 10.07L89.2 37.57a7.38 7.38 0 1 1-12.77-7.37l11.12-19.27a7.38 7.38 0 0 1 10.08-2.7z" fill="#d9d9d9" fill-opacity="0.38" transform="rotate(180 64 64)"/><path d="M97.63 8.23a7.38 7.38 0 0 1 2.7 10.07L89.2 37.57a7.38 7.38 0 1 1-12.77-7.37l11.12-19.27a7.38 7.38 0 0 1 10.08-2.7z" fill="#d0d0d0" fill-opacity="0.46" transform="rotate(210 64 64)"/><path d="M97.63 8.23a7.38 7.38 0 0 1 2.7 10.07L89.2 37.57a7.38 7.38 0 1 1-12.77-7.37l11.12-19.27a7.38 7.38 0 0 1 10.08-2.7z" fill="#c7c7c7" fill-opacity="0.55" transform="rotate(240 64 64)"/><path d="M97.63 8.23a7.38 7.38 0 0 1 2.7 10.07L89.2 37.57a7.38 7.38 0 1 1-12.77-7.37l11.12-19.27a7.38 7.38 0 0 1 10.08-2.7z" fill="#bebebe" fill-opacity="0.64" transform="rotate(270 64 64)"/><path d="M97.63 8.23a7.38 7.38 0 0 1 2.7 10.07L89.2 37.57a7.38 7.38 0 1 1-12.77-7.37l11.12-19.27a7.38 7.38 0 0 1 10.08-2.7z" fill="#b4b4b4" fill-opacity="0.73" transform="rotate(300 64 64)"/><path d="M97.63 8.23a7.38 7.38 0 0 1 2.7 10.07L89.2 37.57a7.38 7.38 0 1 1-12.77-7.37l11.12-19.27a7.38 7.38 0 0 1 10.08-2.7z" fill="#ababab" fill-opacity="0.82" transform="rotate(330 64 64)"/><animateTransform attributeName="transform" calcMode="discrete" dur="1080ms" repeatCount="indefinite" type="rotate" values="0 64 64;30 64 64;60 64 64;90 64 64;120 64 64;150 64 64;180 64 64;210 64 64;240 64 64;270 64 64;300 64 64;330 64 64">

    </animateTransform>
    </g>
</svg>